<?xml version="1.0" encoding="UTF-8" standalone="no"?>
<!DOCTYPE svg PUBLIC "-//W3C//DTD SVG 1.1//EN" "http://www.w3.org/Graphics/SVG/1.1/DTD/svg11.dtd">
<svg width="100%" height="100%" viewBox="0 0 571 76" version="1.1" xmlns="http://www.w3.org/2000/svg" xmlns:xlink="http://www.w3.org/1999/xlink" xml:space="preserve" xmlns:serif="http://www.serif.com/" style="fill-rule:evenodd;clip-rule:evenodd;stroke-linejoin:round;stroke-miterlimit:2;">
    <g transform="matrix(1,0,0,1,-9951.36,-10329.8)">
        <g transform="matrix(1.08294,0,0,1,9119.3,9055.42)">
            <g transform="matrix(0.92341,0,0,1,-8442.94,-3372.98)">
                <path d="M9995.44,4700.27C9984.15,4700.1 9975.12,4690.8 9975.29,4679.51C9975.46,4668.22 9984.76,4659.19 9996.05,4659.36C10218,4662.67 10478.9,4651.05 10523.8,4647.42C10535.1,4646.51 10544.9,4654.91 10545.9,4666.16C10546.8,4677.41 10538.4,4687.29 10527.1,4688.2C10481.9,4691.86 10219,4703.61 9995.44,4700.27Z" style="fill:rgb(236,183,97);"/>
            </g>
        </g>
        <g transform="matrix(1.08294,0,0,1,9119.3,9055.42)">
            <g transform="matrix(0.92341,0,0,1,-8435.07,-3350.82)">
                <path d="M9995.44,4700.27C9984.15,4700.1 9975.12,4690.8 9975.29,4679.51C9975.46,4668.22 9984.76,4659.19 9996.05,4659.36C10217.9,4662.67 10441.4,4656.16 10486.3,4652.53C10497.6,4651.62 10507.5,4660.02 10508.4,4671.27C10509.3,4682.53 10500.9,4692.4 10489.6,4693.31C10444.4,4696.97 10219.1,4703.61 9995.44,4700.27Z" style="fill:rgb(236,183,97);"/>
            </g>
        </g>
    </g>
</svg>
