<?xml version="1.0" encoding="UTF-8" standalone="no"?>
<!DOCTYPE svg PUBLIC "-//W3C//DTD SVG 1.1//EN" "http://www.w3.org/Graphics/SVG/1.1/DTD/svg11.dtd">
<svg width="100%" height="100%" viewBox="0 0 2015 1437" version="1.1" xmlns="http://www.w3.org/2000/svg" xmlns:xlink="http://www.w3.org/1999/xlink" xml:space="preserve" xmlns:serif="http://www.serif.com/" style="fill-rule:evenodd;clip-rule:evenodd;stroke-linecap:round;stroke-linejoin:round;stroke-miterlimit:1.5;">
    <g transform="matrix(1,0,0,1,-8710.23,-14732.4)">
        <g transform="matrix(1.4025,8.20496,-8.32957,1.4238,9728.19,15500.1)">
            <path d="M43.7,-45C58.8,-28.6 74.8,-14.3 77.3,2.5C79.8,19.3 68.9,38.6 53.7,51.2C38.6,63.7 19.3,69.6 -1.6,71.2C-22.6,72.8 -45.1,70.2 -58,57.7C-60.709,55.074 -62.997,52.018 -64.918,48.625C-72.215,35.735 -74.217,17.974 -73.9,0.4C-73.4,-21.7 -69.2,-43.3 -56.2,-59.7C-43.3,-76.1 -21.7,-87.3 -3.7,-83.6C14.3,-80 28.6,-61.4 43.7,-45Z" style="fill:rgb(236,183,97);fill-rule:nonzero;"/>
        </g>
        <g transform="matrix(0.328636,0,0,0.350717,5206.84,13911.1)">
            <path d="M10663,4676.68C10655.8,4660.59 10664,4642.11 10681.2,4635.43C10698.3,4628.75 10718.1,4636.4 10725.2,4652.49C10740,4685.83 10750.4,4712.45 10762.6,4731.57C10769.9,4742.92 10777.2,4750.95 10789.9,4753.14C10800,4754.88 10807.6,4755.04 10813.6,4752.54C10822.4,4748.87 10826,4740.3 10830,4731.58C10835.1,4720.32 10839.2,4707.9 10843.9,4696.03C10859.4,4656.86 10882.3,4624.58 10933.8,4620.84C10965,4618.57 10988.9,4630.73 11008.6,4651.16C11022.5,4665.61 11034.1,4684.91 11045.7,4703.43C11051.5,4712.76 11057.3,4721.85 11064,4729.22C11068.5,4734.28 11072.9,4739.19 11080,4738.84C11084.1,4738.64 11087.5,4736.36 11090.8,4733.75C11097.3,4728.57 11102.9,4721.41 11107.9,4713.71C11126.6,4684.82 11136.4,4648.05 11138.1,4641.77C11142.9,4624.93 11161.3,4614.88 11179.3,4619.34C11197.3,4623.8 11208,4641.09 11203.3,4657.93C11200.6,4667.13 11183.4,4728.07 11151.7,4765.05C11133.1,4786.69 11109.7,4800.57 11083.5,4801.88C11058.4,4803.13 11038,4794.13 11020.7,4778.29C11008.4,4767 10997.7,4751.63 10987.5,4735.35C10979.9,4723.09 10972.4,4710.27 10963.8,4699.53C10957.1,4691.1 10950.5,4682.94 10939,4683.77C10921.5,4685.04 10915.7,4697.95 10910,4710.9C10902.8,4727.31 10897.4,4745.44 10889.7,4761.06C10880.6,4779.66 10868.3,4795.15 10851.1,4805.19C10833.6,4815.39 10810.4,4820.87 10777.7,4815.22C10745.4,4809.64 10723.4,4793.02 10704.9,4764.08C10691.3,4742.91 10679.3,4713.62 10663,4676.68Z" style="fill:rgb(236,183,97);"/>
        </g>
        <g transform="matrix(0.322023,0.0655958,0.0700032,-0.343659,6790.67,16441.8)">
            <path d="M10725.2,4652.49C10718.1,4636.4 10698.3,4628.75 10681.2,4635.43C10664,4642.11 10655.8,4660.59 10663,4676.68C10679.3,4713.62 10691.3,4742.91 10704.9,4764.08C10723.4,4793.02 10745.4,4809.64 10777.7,4815.22C10810.4,4820.87 10833.6,4815.39 10851.1,4805.19C10868.3,4795.15 10880.6,4779.66 10889.7,4761.06C10897.4,4745.44 10902.8,4727.31 10910,4710.9C10915.7,4697.95 10921.5,4685.04 10939,4683.77C10948.8,4683.06 10955,4689.31 10961,4696.14C10973.3,4710.2 10983.1,4728.86 10993.9,4745.28C11016.5,4779.6 11044.5,4803.82 11083.5,4801.88C11109.7,4800.57 11133.1,4786.69 11151.7,4765.05C11183.4,4728.07 11200.6,4667.13 11203.3,4657.93C11208,4641.09 11197.3,4623.8 11179.3,4619.34C11161.3,4614.88 11142.9,4624.93 11138.1,4641.77C11136.4,4648.05 11126.6,4684.82 11107.9,4713.71C11102.9,4721.41 11097.3,4728.57 11090.8,4733.75C11087.5,4736.36 11084.1,4738.64 11080,4738.84C11071.4,4739.27 11066.6,4732.64 11061.3,4726.11C11049.3,4711.46 11039.3,4692.31 11028,4675.57C11004.9,4641.7 10975.7,4617.79 10933.8,4620.84C10882.3,4624.58 10859.4,4656.86 10843.9,4696.03C10839.2,4707.9 10835.1,4720.32 10830,4731.58C10826,4740.3 10822.4,4748.87 10813.6,4752.54C10807.6,4755.04 10800,4754.88 10789.9,4753.14C10777.2,4750.95 10769.9,4742.92 10762.6,4731.57C10750.4,4712.45 10740,4685.83 10725.2,4652.49Z" style="fill:white;"/>
        </g>
        <g transform="matrix(1,0,0,1,-2131.69,10896.6)">
            <path d="M11263.5,5124.66L11314.5,5178.83L11263.5,5233L11212.6,5178.83L11263.5,5124.66Z" style="fill:white;"/>
        </g>
        <g transform="matrix(-0.570671,0.621544,-0.593152,-0.544603,20409.3,11258.9)">
            <path d="M12420.7,5160.87L12490,5275.28L12351.3,5275.28L12420.7,5160.87Z" style="fill:white;stroke:rgb(134,171,186);stroke-width:1.21px;"/>
        </g>
        <g transform="matrix(0.660377,0,0,0.622642,2116.89,12437.2)">
            <circle cx="12494.4" cy="4004.52" r="45.936" style="fill:rgb(236,183,97);"/>
        </g>
        <g transform="matrix(1,0,0,1,-3138.17,10773.8)">
            <circle cx="12494.4" cy="4004.52" r="45.936" style="fill:rgb(236,183,97);"/>
        </g>
    </g>
</svg>
